<svg width="13" height="17" viewBox="0 0 13 17" fill="none" xmlns="http://www.w3.org/2000/svg">
<circle cx="5.70703" cy="9.71582" r="5" stroke="black"/>
<path d="M5.35059 12.3733C5.62988 12.3733 5.88802 12.3162 6.125 12.2019C6.36198 12.0876 6.55664 11.9311 6.70898 11.7322C6.86133 11.5291 6.94808 11.2984 6.96924 11.0403H8.08643C8.06527 11.4465 7.92773 11.8253 7.67383 12.1765C7.42415 12.5235 7.09619 12.8049 6.68994 13.0208C6.28369 13.2323 5.83724 13.3381 5.35059 13.3381C4.83431 13.3381 4.38363 13.2472 3.99854 13.0652C3.61768 12.8832 3.30029 12.6335 3.04639 12.3162C2.79671 11.9988 2.6084 11.6348 2.48145 11.2244C2.35872 10.8097 2.29736 10.3717 2.29736 9.9104V9.6438C2.29736 9.18254 2.35872 8.74666 2.48145 8.33618C2.6084 7.92147 2.79671 7.55542 3.04639 7.23804C3.30029 6.92065 3.61768 6.67098 3.99854 6.48901C4.38363 6.30705 4.83431 6.21606 5.35059 6.21606C5.88802 6.21606 6.35775 6.32609 6.75977 6.54614C7.16178 6.76196 7.47705 7.05819 7.70557 7.43481C7.93831 7.80721 8.06527 8.23039 8.08643 8.70435H6.96924C6.94808 8.42082 6.86768 8.16479 6.72803 7.93628C6.59261 7.70776 6.40641 7.5258 6.16943 7.39038C5.93669 7.25073 5.66374 7.18091 5.35059 7.18091C4.99089 7.18091 4.68831 7.25285 4.44287 7.39673C4.20166 7.53638 4.00911 7.72681 3.86523 7.96802C3.72559 8.205 3.62402 8.46948 3.56055 8.76147C3.5013 9.04924 3.47168 9.34334 3.47168 9.6438V9.9104C3.47168 10.2109 3.5013 10.5071 3.56055 10.7991C3.61979 11.0911 3.71924 11.3556 3.85889 11.5925C4.00277 11.8295 4.19531 12.0199 4.43652 12.1638C4.68197 12.3035 4.98665 12.3733 5.35059 12.3733Z" fill="black"/>
</svg>
