<svg width="45" height="46" viewBox="0 0 45 46" fill="none" xmlns="http://www.w3.org/2000/svg">
<circle cx="22.5" cy="23" r="21.5" stroke="white" stroke-width="2"/>
<path d="M32.5 16.7017C31.7645 17.0243 30.9641 17.2565 30.1397 17.3469C30.9956 16.8299 31.6366 16.013 31.9424 15.0495C31.1392 15.5354 30.2593 15.8761 29.3417 16.0565C28.9582 15.6396 28.4944 15.3075 27.9792 15.0808C27.4639 14.8542 26.9083 14.7379 26.3469 14.7391C24.0755 14.7391 22.2488 16.6113 22.2488 18.9087C22.2488 19.2313 22.2873 19.5539 22.3498 19.8643C18.9487 19.6834 15.9155 18.0313 13.8989 15.5017C13.5314 16.1399 13.3389 16.8665 13.3412 17.606C13.3412 19.0529 14.0647 20.3287 15.1679 21.079C14.5178 21.053 13.8829 20.8712 13.3148 20.5486V20.6C13.3148 22.6261 14.7233 24.3051 16.6005 24.6913C16.248 24.7844 15.8854 24.832 15.5213 24.833C15.2545 24.833 15.0021 24.8062 14.7473 24.7695C15.2665 26.4217 16.7783 27.6217 18.5786 27.6608C17.1701 28.7826 15.4059 29.4425 13.4903 29.4425C13.1466 29.4425 12.8293 29.4303 12.5 29.3912C14.3171 30.5765 16.4731 31.2609 18.7949 31.2609C26.3325 31.2609 30.457 24.9113 30.457 19.3999C30.457 19.2191 30.457 19.0382 30.445 18.8574C31.2429 18.2635 31.9424 17.5278 32.5 16.7017Z" fill="white"/>
</svg>
