<svg width="40" height="41" viewBox="0 0 40 41" fill="none" xmlns="http://www.w3.org/2000/svg">
<path fill-rule="evenodd" clip-rule="evenodd" d="M11.521 11.9949C12.9177 9.89987 16.0427 6.94653 20.8327 6.94653C24.3827 6.94653 26.916 8.74653 28.511 10.8299C29.5444 12.1838 30.2748 13.7441 30.6527 15.4049C31.961 15.6165 33.4777 16.1215 34.8277 17.0949C36.8193 18.5265 38.3327 20.9015 38.3327 24.4465C38.3327 27.9899 36.8193 30.3649 34.8277 31.7999C32.921 33.1715 30.6827 33.6132 29.166 33.6132H21.666V22.6365L23.821 24.7915C24.1354 25.0951 24.5564 25.2631 24.9933 25.2593C25.4303 25.2555 25.8484 25.0802 26.1574 24.7712C26.4664 24.4622 26.6417 24.0442 26.6455 23.6072C26.6493 23.1702 26.4813 22.7492 26.1777 22.4349L21.1777 17.4349C20.8651 17.1224 20.4413 16.9469 19.9993 16.9469C19.5574 16.9469 19.1336 17.1224 18.821 17.4349L13.821 22.4349C13.6618 22.5886 13.5349 22.7725 13.4475 22.9759C13.3602 23.1792 13.3142 23.3979 13.3123 23.6192C13.3103 23.8405 13.3525 24.06 13.4363 24.2648C13.5201 24.4696 13.6439 24.6557 13.8004 24.8122C13.9568 24.9687 14.1429 25.0924 14.3478 25.1762C14.5526 25.26 14.772 25.3022 14.9933 25.3003C15.2146 25.2984 15.4333 25.2524 15.6367 25.165C15.84 25.0777 16.0239 24.9507 16.1777 24.7915L18.3327 22.6365V33.6132H12.4993C10.7043 33.6132 8.04935 33.0882 5.79602 31.4665C3.45768 29.7815 1.66602 26.9899 1.66602 22.7799C1.66602 18.5699 3.45768 15.7782 5.79602 14.0932C7.66935 12.7449 9.81768 12.1549 11.521 11.9932V11.9949Z" fill="#949494"/>
</svg>
